<svg width="20" height="17" viewBox="0 0 20 17" fill="none" xmlns="http://www.w3.org/2000/svg">
<path d="M4 10.6945C3.58579 10.6945 3.25 11.0302 3.25 11.4445C3.25 11.8587 3.58579 12.1945 4 12.1945H10C10.4142 12.1945 10.75 11.8587 10.75 11.4445C10.75 11.0302 10.4142 10.6945 10 10.6945H4Z" fill="#838383"/>
<path fill-rule="evenodd" clip-rule="evenodd" d="M3 0.444458C1.34315 0.444458 0 1.7876 0 3.44446V13.4445C0 15.1013 1.34315 16.4445 3 16.4445H17C18.6569 16.4445 20 15.1013 20 13.4445V3.44446C20 1.7876 18.6569 0.444458 17 0.444458H3ZM17 1.94446H3C2.17157 1.94446 1.5 2.61603 1.5 3.44446V4.69446H18.5V3.44446C18.5 2.61603 17.8284 1.94446 17 1.94446ZM1.5 13.4445V6.19446H18.5V13.4445C18.5 14.2729 17.8284 14.9445 17 14.9445H3C2.17157 14.9445 1.5 14.2729 1.5 13.4445Z" fill="#838383"/>
</svg>
